<?xml version="1.0" encoding="UTF-8"?>
<svg xmlns="http://www.w3.org/2000/svg" viewBox="0 0 220 175.32">
  <path class="cls-1" d="M113.28,145.45c-43.55,0-78.98-27.58-78.98-61.47S69.73,22.51,113.28,22.51s78.98,27.58,78.98,61.47-35.43,61.47-78.98,61.47ZM113.28,27.3c-40.91,0-74.2,25.43-74.2,56.68s33.28,56.68,74.2,56.68,74.2-25.43,74.2-56.68-33.28-56.68-74.2-56.68Z"/>
  <polygon class="cls-1" points="113.28 175.32 55.49 126.17 58.59 122.52 113.28 169.03 166.26 123.89 169.36 127.53 113.28 175.32"/>

  <path class="cls-1" d="M38.04,68.24C17.06,68.24,0,52.97,0,34.19S17.06.14,38.04.14v4.79C19.7,4.93,4.79,18.05,4.79,34.19s14.92,29.27,33.25,29.27v4.79Z"/>
  <rect class="cls-1" x="26.42" y="46.52" width="4.79" height="54.34" transform="translate(-42.83 40.1) rotate(-43.53)"/>

  <path class="cls-1" d="M71.32,94.94c-12.33,0-22.36-10.03-22.36-22.36V2.53h4.79v70.05c0,9.69,7.88,17.58,17.58,17.58s17.58-7.88,17.58-17.58V2.53h4.79v70.05c0,12.33-10.03,22.36-22.36,22.36Z"/>
  <path class="cls-1" d="M98.61,94.94c-12.33,0-22.36-10.03-22.36-22.36h4.79c0,9.69,7.88,17.58,17.58,17.58s17.58-7.88,17.58-17.58V2.53h4.79v70.05c0,12.33-10.03,22.36-22.36,22.36Z"/>
  <rect class="cls-1" x="136.42" y="2.53" width="4.79" height="91.16"/>
  <rect class="cls-1" x="143.33" y="45.72" width="93.03" height="4.79" transform="translate(104.85 224.56) rotate(-78.5)"/>
  <rect class="cls-1" x="205.99" y="1.6" width="4.79" height="93.03" transform="translate(-5.41 42.5) rotate(-11.5)"/>
  <rect class="cls-1" x="162.76" y="2.53" width="4.79" height="91.16"/>
  <rect class="cls-1" x="148.98" width="32.97" height="4.79"/>
  <rect class="cls-1" x="178.98" y="46.91" width="40.26" height="4.79"/>
</svg>